{
  "accessors": [
    {
      "bufferView": 2,
      "componentType": 5126,
      "count": 65532,
      "max": [
        0.99809002876281738,
        0.99809002876281738,
        0.99809002876281738
      ],
      "min": [
        -0.97390997409820557,
        -0.99809002876281738,
        -0.99809002876281738
      ],
      "type": "VEC3"
    },
    {
      "bufferView": 2,
      "byteOffset": 786384,
      "componentType": 5126,
      "count": 65532,
      "max": [
        1,
        1,
        1
      ],
      "min": [
        -0.9781530499458313,
        -1,
        -1
      ],
      "type": "VEC3"
    },
    {
      "bufferView": 1,
      "componentType": 5126,
      "count": 65532,
      "max": [
        0.99219000339508057,
        0.99219000339508057
      ],
      "min": [
        0.0078099998645484447,
        0.0078099998645484447
      ],
      "type": "VEC2"
    },
    {
      "bufferView": 3,
      "componentType": 5126,
      "count": 65532,
      "max": [
        0.78287899494171143,
        0.78287893533706665,
        1,
        -1
      ],
      "min": [
        -1,
        -1,
        -1,
        -1
      ],
      "type": "VEC4"
    },
    {
      "bufferView": 0,
      "componentType": 5125,
      "count": 386766,
      "max": [
        65531
      ],
      "min": [
        0
      ],
      "type": "SCALAR"
    },
    {
      "bufferView": 2,
      "byteOffset": 1572768,
      "componentType": 5126,
      "count": 9373,
      "max": [
        0.70310002565383911,
        0.70464998483657837,
        0.70464998483657837
      ],
      "min": [
        -0.99809002876281738,
        -0.74638998508453369,
        -0.70464998483657837
      ],
      "type": "VEC3"
    },
    {
      "bufferView": 2,
      "byteOffset": 1685244,
      "componentType": 5126,
      "count": 9373,
      "max": [
        0.70728623867034912,
        0.70728623867034912,
        0.70728623867034912
      ],
      "min": [
        -1,
        -0.7401084303855896,
        -0.70728623867034912
      ],
      "type": "VEC3"
    },
    {
      "bufferView": 1,
      "byteOffset": 524256,
      "componentType": 5126,
      "count": 9373,
      "max": [
        0.99219000339508057,
        0.99219000339508057
      ],
      "min": [
        0.0078099998645484447,
        0.0078099998645484447
      ],
      "type": "VEC2"
    },
    {
      "bufferView": 3,
      "byteOffset": 1048512,
      "componentType": 5126,
      "count": 9373,
      "max": [
        0.78327327966690063,
        0.78327834606170654,
        0.92286133766174316,
        -1
      ],
      "min": [
        -0.92290037870407104,
        -0.92290657758712769,
        -1,
        -1
      ],
      "type": "VEC4"
    },
    {
      "bufferView": 0,
      "byteOffset": 1547064,
      "componentType": 5125,
      "count": 50994,
      "max": [
        9372
      ],
      "min": [
        0
      ],
      "type": "SCALAR"
    },
    {
      "bufferView": 2,
      "byteOffset": 1797720,
      "componentType": 5126,
      "count": 39257,
      "max": [
        0.89977002143859863,
        0.89329999685287476,
        2.5194499492645264
      ],
      "min": [
        -0.89336001873016357,
        -0.89319002628326416,
        1.456779956817627
      ],
      "type": "VEC3"
    },
    {
      "bufferView": 2,
      "byteOffset": 2268804,
      "componentType": 5126,
      "count": 39257,
      "max": [
        0.99992167949676514,
        0.9999164342880249,
        1
      ],
      "min": [
        -0.99991476535797119,
        -0.99993336200714111,
        -1
      ],
      "type": "VEC3"
    },
    {
      "bufferView": 1,
      "byteOffset": 599240,
      "componentType": 5126,
      "count": 39257,
      "max": [
        0.98438000679016113,
        0.98827999830245972
      ],
      "min": [
        0.34375,
        0.66797000169754028
      ],
      "type": "VEC2"
    },
    {
      "bufferView": 3,
      "byteOffset": 1198480,
      "componentType": 5126,
      "count": 39257,
      "max": [
        0.99999314546585083,
        0.99999290704727173,
        0.99997764825820923,
        1
      ],
      "min": [
        -0.99998867511749268,
        -0.99999111890792847,
        -0.92266362905502319,
        -1
      ],
      "type": "VEC4"
    },
    {
      "bufferView": 0,
      "byteOffset": 1751040,
      "componentType": 5125,
      "count": 229632,
      "max": [
        39256
      ],
      "min": [
        0
      ],
      "type": "SCALAR"
    },
    {
      "bufferView": 2,
      "byteOffset": 2739888,
      "componentType": 5126,
      "count": 16386,
      "max": [
        0.89068001508712769,
        0.19923999905586243,
        2.2745499610900879
      ],
      "min": [
        0.64673000574111938,
        -0.19923999905586243,
        1.9256299734115601
      ],
      "type": "VEC3"
    },
    {
      "bufferView": 2,
      "byteOffset": 2936520,
      "componentType": 5126,
      "count": 16386,
      "max": [
        0.9999580979347229,
        0.99590468406677246,
        0.99989229440689087
      ],
      "min": [
        -0.99834471940994263,
        -0.99590468406677246,
        -0.99896442890167236
      ],
      "type": "VEC3"
    },
    {
      "bufferView": 3,
      "byteOffset": 1826592,
      "componentType": 5126,
      "count": 16386,
      "max": [
        0,
        0,
        0,
        1
      ],
      "min": [
        0,
        0,
        0,
        1
      ],
      "type": "VEC4"
    },
    {
      "bufferView": 0,
      "byteOffset": 2669568,
      "componentType": 5125,
      "count": 98304,
      "max": [
        16385
      ],
      "min": [
        0
      ],
      "type": "SCALAR"
    },
    {
      "bufferView": 2,
      "byteOffset": 3133152,
      "componentType": 5126,
      "count": 62850,
      "max": [
        0.90057998895645142,
        0.51414000988006592,
        3.0781800746917725
      ],
      "min": [
        -0.69844001531600952,
        -0.21332000195980072,
        1.7204699516296387
      ],
      "type": "VEC3"
    },
    {
      "bufferView": 2,
      "byteOffset": 3887352,
      "componentType": 5126,
      "count": 62850,
      "max": [
        0.99999922513961792,
        0.99999529123306274,
        0.99993926286697388
      ],
      "min": [
        -0.99999922513961792,
        -0.99999529123306274,
        -1
      ],
      "type": "VEC3"
    },
    {
      "bufferView": 3,
      "byteOffset": 2088768,
      "componentType": 5126,
      "count": 62850,
      "max": [
        0.99997007846832275,
        0.99701148271560669,
        0.99999815225601196,
        1
      ],
      "min": [
        -0.44727364182472229,
        -0.99772697687149048,
        -0.99993562698364258,
        -1
      ],
      "type": "VEC4"
    },
    {
      "bufferView": 0,
      "byteOffset": 3062784,
      "componentType": 5125,
      "count": 258120,
      "max": [
        62849
      ],
      "min": [
        0
      ],
      "type": "SCALAR"
    },
    {
      "bufferView": 2,
      "byteOffset": 4641552,
      "componentType": 5126,
      "count": 10441,
      "max": [
        0.89711999893188477,
        0.0032500000670552254,
        1.8006099462509155
      ],
      "min": [
        0.87654000520706177,
        -0.064910002052783966,
        1.732740044593811
      ],
      "type": "VEC3"
    },
    {
      "bufferView": 2,
      "byteOffset": 4766844,
      "componentType": 5126,
      "count": 10441,
      "max": [
        0.99999338388442993,
        0.81655275821685791,
        0.88355493545532227
      ],
      "min": [
        0.46414145827293396,
        -0.8504786491394043,
        -0.77641159296035767
      ],
      "type": "VEC3"
    },
    {
      "bufferView": 3,
      "byteOffset": 3094368,
      "componentType": 5126,
      "count": 10441,
      "max": [
        0.58035606145858765,
        0.87396574020385742,
        0.99995887279510498,
        -1
      ],
      "min": [
        -0.88454008102416992,
        -0.83968865871429443,
        -0.90098434686660767,
        -1
      ],
      "type": "VEC4"
    },
    {
      "bufferView": 0,
      "byteOffset": 4095264,
      "componentType": 5125,
      "count": 58368,
      "max": [
        10440
      ],
      "min": [
        0
      ],
      "type": "SCALAR"
    },
    {
      "bufferView": 2,
      "byteOffset": 4892136,
      "componentType": 5126,
      "count": 16386,
      "max": [
        0.83941000699996948,
        0.46726998686790466,
        1.954010009765625
      ],
      "min": [
        0.76476001739501953,
        0.34951001405715942,
        1.8261899948120117
      ],
      "type": "VEC3"
    },
    {
      "bufferView": 2,
      "byteOffset": 5088768,
      "componentType": 5126,
      "count": 16386,
      "max": [
        0.99999076128005981,
        0.99995988607406616,
        0.99997478723526001
      ],
      "min": [
        -0.99985820055007935,
        -0.98848003149032593,
        -0.99634319543838501
      ],
      "type": "VEC3"
    },
    {
      "bufferView": 3,
      "byteOffset": 3261424,
      "componentType": 5126,
      "count": 16386,
      "max": [
        0,
        0,
        0,
        1
      ],
      "min": [
        0,
        0,
        0,
        1
      ],
      "type": "VEC4"
    },
    {
      "bufferView": 0,
      "byteOffset": 4328736,
      "componentType": 5125,
      "count": 98304,
      "max": [
        16385
      ],
      "min": [
        0
      ],
      "type": "SCALAR"
    },
    {
      "bufferView": 2,
      "byteOffset": 5285400,
      "componentType": 5126,
      "count": 6914,
      "max": [
        -0.44345000386238098,
        -0.069580003619194031,
        2.7311000823974609
      ],
      "min": [
        -0.4719499945640564,
        -0.098059996962547302,
        2.3674700260162354
      ],
      "type": "VEC3"
    },
    {
      "bufferView": 2,
      "byteOffset": 5368368,
      "componentType": 5126,
      "count": 6914,
      "max": [
        0.99999517202377319,
        0.99999600648880005,
        1
      ],
      "min": [
        -0.99999076128005981,
        -0.99999600648880005,
        -0.99999982118606567
      ],
      "type": "VEC3"
    },
    {
      "bufferView": 3,
      "byteOffset": 3523600,
      "componentType": 5126,
      "count": 6914,
      "max": [
        0,
        0,
        0,
        1
      ],
      "min": [
        0,
        0,
        0,
        1
      ],
      "type": "VEC4"
    },
    {
      "bufferView": 0,
      "byteOffset": 4721952,
      "componentType": 5125,
      "count": 41472,
      "max": [
        6913
      ],
      "min": [
        0
      ],
      "type": "SCALAR"
    },
    {
      "bufferView": 2,
      "byteOffset": 5451336,
      "componentType": 5126,
      "count": 648,
      "max": [
        -0.68671000003814697,
        0.081820003688335419,
        2.9448599815368652
      ],
      "min": [
        -0.69621002674102783,
        0.07231999933719635,
        2.4761300086975098
      ],
      "type": "VEC3"
    },
    {
      "bufferView": 2,
      "byteOffset": 5459112,
      "componentType": 5126,
      "count": 648,
      "max": [
        1,
        0.99999600648880005,
        0.0076303090900182724
      ],
      "min": [
        -1,
        -0.9999958872795105,
        -0.0036601421888917685
      ],
      "type": "VEC3"
    },
    {
      "bufferView": 3,
      "byteOffset": 3634224,
      "componentType": 5126,
      "count": 648,
      "max": [
        0,
        0,
        0,
        1
      ],
      "min": [
        0,
        0,
        0,
        1
      ],
      "type": "VEC4"
    },
    {
      "bufferView": 0,
      "byteOffset": 4887840,
      "componentType": 5125,
      "count": 3456,
      "max": [
        647
      ],
      "min": [
        0
      ],
      "type": "SCALAR"
    }
  ],
  "asset": {
    "generator": "Sketchfab (OSG glTF plugin)",
    "version": "2.0"
  },
  "bufferViews": [
    {
      "buffer": 0,
      "byteLength": 4901664,
      "byteOffset": 0,
      "name": "ScalarBufferView",
      "target": 34963
    },
    {
      "buffer": 0,
      "byteLength": 913296,
      "byteOffset": 4901664,
      "byteStride": 8,
      "name": "Vec3BufferView",
      "target": 34962
    },
    {
      "buffer": 0,
      "byteLength": 5466888,
      "byteOffset": 5814960,
      "byteStride": 12,
      "name": "Vec4BufferView",
      "target": 34962
    },
    {
      "buffer": 0,
      "byteLength": 3644592,
      "byteOffset": 11281848,
      "byteStride": 16,
      "name": "MatrixBufferView",
      "target": 34962
    }
  ],
  "buffers": [
    {
      "byteLength": 14926440,
      "uri": "scene.bin"
    }
  ],
  "extensionsRequired": [
    "KHR_materials_pbrSpecularGlossiness"
  ],
  "extensionsUsed": [
    "KHR_materials_pbrSpecularGlossiness"
  ],
  "images": [
    {
      "uri": "textures/Droid%20Texture_diffuse.png"
    },
    {
      "uri": "textures/Droid%20Texture_specularGlossiness.png"
    }
  ],
  "materials": [
    {
      "doubleSided": true,
      "extensions": {
        "KHR_materials_pbrSpecularGlossiness": {
          "diffuseFactor": [
            1,
            1,
            1,
            1
          ],
          "diffuseTexture": {
            "index": 0,
            "texCoord": 0
          },
          "glossinessFactor": 1,
          "specularFactor": [
            1,
            1,
            1
          ],
          "specularGlossinessTexture": {
            "index": 1,
            "texCoord": 0
          }
        }
      },
      "name": "Droid Texture"
    },
    {
      "alphaCutoff": 0.5,
      "alphaMode": "BLEND",
      "doubleSided": true,
      "emissiveFactor": [
        0,
        0,
        0
      ],
      "extensions": {
        "KHR_materials_pbrSpecularGlossiness": {
          "diffuseFactor": [
            1,
            1,
            1,
            0.00034954030000000001
          ],
          "glossinessFactor": 0.40000000000000002,
          "specularFactor": [
            1,
            1,
            1
          ]
        }
      },
      "name": "Main Lens"
    },
    {
      "doubleSided": true,
      "emissiveFactor": [
        0,
        0,
        0
      ],
      "extensions": {
        "KHR_materials_pbrSpecularGlossiness": {
          "diffuseFactor": [
            1,
            1,
            1,
            1
          ],
          "glossinessFactor": 0.56250002980000002,
          "specularFactor": [
            0.062033005099999997,
            0.062033005099999997,
            0.062033005099999997
          ]
        }
      },
      "name": "Black Plastic"
    },
    {
      "doubleSided": true,
      "emissiveFactor": [
        0,
        0,
        0
      ],
      "extensions": {
        "KHR_materials_pbrSpecularGlossiness": {
          "diffuseFactor": [
            1,
            1,
            1,
            1
          ],
          "glossinessFactor": 0.47916668650000005,
          "specularFactor": [
            0.46720376609999997,
            0.46720376609999997,
            0.46720376609999997
          ]
        }
      },
      "name": "Grey Plastic"
    },
    {
      "alphaCutoff": 0.5,
      "alphaMode": "BLEND",
      "doubleSided": true,
      "emissiveFactor": [
        0,
        0,
        0
      ],
      "extensions": {
        "KHR_materials_pbrSpecularGlossiness": {
          "diffuseFactor": [
            1,
            1,
            1,
            0.0029835065000000001
          ],
          "glossinessFactor": 0.40000000000000002,
          "specularFactor": [
            1,
            1,
            1
          ]
        }
      },
      "name": "Material.003"
    },
    {
      "doubleSided": true,
      "emissiveFactor": [
        0,
        0,
        0
      ],
      "extensions": {
        "KHR_materials_pbrSpecularGlossiness": {
          "diffuseFactor": [
            1,
            1,
            1,
            1
          ],
          "glossinessFactor": 0.2582159638,
          "specularFactor": [
            1,
            1,
            1
          ]
        }
      },
      "name": "White Plastic"
    },
    {
      "doubleSided": true,
      "emissiveFactor": [
        0,
        0,
        0
      ],
      "extensions": {
        "KHR_materials_pbrSpecularGlossiness": {
          "diffuseFactor": [
            1,
            1,
            1,
            1
          ],
          "glossinessFactor": 1,
          "specularFactor": [
            0.80000001190000003,
            0.80000001190000003,
            0.80000001190000003
          ]
        }
      },
      "name": "Stainless Steel"
    }
  ],
  "meshes": [
    {
      "name": "GeodeBody",
      "primitives": [
        {
          "attributes": {
            "NORMAL": 1,
            "POSITION": 0,
            "TANGENT": 3,
            "TEXCOORD_0": 2
          },
          "indices": 4,
          "material": 0,
          "mode": 4
        },
        {
          "attributes": {
            "NORMAL": 6,
            "POSITION": 5,
            "TANGENT": 8,
            "TEXCOORD_0": 7
          },
          "indices": 9,
          "material": 0,
          "mode": 4
        }
      ]
    },
    {
      "name": "GeodeHead.001",
      "primitives": [
        {
          "attributes": {
            "NORMAL": 11,
            "POSITION": 10,
            "TANGENT": 13,
            "TEXCOORD_0": 12
          },
          "indices": 14,
          "material": 0,
          "mode": 4
        },
        {
          "attributes": {
            "NORMAL": 16,
            "POSITION": 15,
            "TANGENT": 17
          },
          "indices": 18,
          "material": 1,
          "mode": 4
        },
        {
          "attributes": {
            "NORMAL": 20,
            "POSITION": 19,
            "TANGENT": 21
          },
          "indices": 22,
          "material": 2,
          "mode": 4
        },
        {
          "attributes": {
            "NORMAL": 24,
            "POSITION": 23,
            "TANGENT": 25
          },
          "indices": 26,
          "material": 3,
          "mode": 4
        },
        {
          "attributes": {
            "NORMAL": 28,
            "POSITION": 27,
            "TANGENT": 29
          },
          "indices": 30,
          "material": 4,
          "mode": 4
        },
        {
          "attributes": {
            "NORMAL": 32,
            "POSITION": 31,
            "TANGENT": 33
          },
          "indices": 34,
          "material": 5,
          "mode": 4
        },
        {
          "attributes": {
            "NORMAL": 36,
            "POSITION": 35,
            "TANGENT": 37
          },
          "indices": 38,
          "material": 6,
          "mode": 4
        }
      ]
    }
  ],
  "nodes": [
    {
      "children": [
        1
      ],
      "name": "RootNode (gltf orientation matrix)",
      "rotation": [
        -0.70710678118654746,
        -0,
        -0,
        0.70710678118654757
      ]
    },
    {
      "children": [
        2
      ],
      "name": "RootNode (model correction matrix)"
    },
    {
      "children": [
        3,
        5,
        7
      ],
      "name": "Root"
    },
    {
      "children": [
        4
      ],
      "matrix": [
        0.060144486364747562,
        -0.9901330512715486,
        -0.12656690538847037,
        -0,
        0.51966334741415576,
        -0.077199600888018027,
        0.85087615254926818,
        -0,
        0.85225151575942393,
        0.11694769088111145,
        -0.50989272546619113,
        -0,
        0,
        0,
        1,
        1
      ],
      "name": "Body"
    },
    {
      "mesh": 0,
      "name": "GeodeBody"
    },
    {
      "children": [
        6
      ],
      "matrix": [
        -0.29086000000000006,
        0.95517000000000007,
        -0.05519000000000001,
        0,
        -0.77110000000000001,
        -0.19988000000000003,
        0.60452000000000006,
        0,
        0.56639000000000006,
        0.21839000000000003,
        0.7946700000000001,
        0,
        4.0762500000000008,
        1.00545,
        5.9038600000000008,
        1
      ],
      "name": "Lamp"
    },
    {
      "name": "Lamp"
    },
    {
      "children": [
        8
      ],
      "matrix": [
        0.65299999713897705,
        0,
        0,
        0,
        0,
        0.65290999412536621,
        0,
        0,
        0,
        0,
        0.65290999412536621,
        0,
        0,
        0,
        1,
        1
      ],
      "name": "Head.001"
    },
    {
      "mesh": 1,
      "name": "GeodeHead.001"
    }
  ],
  "samplers": [
    {
      "magFilter": 9729,
      "minFilter": 9987,
      "wrapS": 10497,
      "wrapT": 10497
    }
  ],
  "scene": 0,
  "scenes": [
    {
      "name": "OSG_Scene",
      "nodes": [
        0
      ]
    }
  ],
  "textures": [
    {
      "sampler": 0,
      "source": 0
    },
    {
      "sampler": 0,
      "source": 1
    }
  ]
}

